<svg width="89" height="18" viewBox="0 0 89 18" fill="none" xmlns="http://www.w3.org/2000/svg">
<path d="M6.28886 0.47953H9.64886L15.9129 17.5195H12.5049L10.9209 13.2715H4.96886L3.40886 17.5195H0.000859383L6.28886 0.47953ZM10.3209 10.9435L7.96886 3.91153L5.52086 10.9435H10.3209ZM19.5339 4.94353L22.1739 8.87953L22.3659 9.31153L22.6059 8.87953L25.2219 4.94353H28.6059L24.2379 11.2075L28.6779 17.5195H25.2939L22.5819 13.6075L22.3659 13.1995L22.1739 13.6075L19.4859 17.5195H16.1019L20.5419 11.2795L16.1739 4.94353H19.5339ZM30.2199 17.5195V4.94353H33.4359V17.5195H30.2199ZM30.2199 3.19153V-0.000469208H33.4359V3.19153H30.2199ZM42.145 17.7595C41.121 17.7595 40.201 17.5915 39.385 17.2555C38.569 16.9035 37.873 16.4235 37.297 15.8155C36.737 15.2075 36.305 14.5115 36.001 13.7275C35.697 12.9435 35.545 12.1195 35.545 11.2555C35.545 10.3755 35.697 9.54353 36.001 8.75953C36.305 7.97553 36.737 7.27953 37.297 6.67153C37.873 6.06353 38.569 5.59153 39.385 5.25553C40.201 4.90353 41.121 4.72753 42.145 4.72753C43.169 4.72753 44.081 4.90353 44.881 5.25553C45.697 5.59153 46.393 6.06353 46.969 6.67153C47.545 7.27953 47.977 7.97553 48.265 8.75953C48.569 9.54353 48.721 10.3755 48.721 11.2555C48.721 12.1195 48.569 12.9435 48.265 13.7275C47.977 14.5115 47.545 15.2075 46.969 15.8155C46.409 16.4235 45.721 16.9035 44.905 17.2555C44.089 17.5915 43.169 17.7595 42.145 17.7595ZM38.857 11.2555C38.857 11.9915 39.001 12.6475 39.289 13.2235C39.577 13.7835 39.969 14.2235 40.465 14.5435C40.961 14.8635 41.521 15.0235 42.145 15.0235C42.753 15.0235 43.305 14.8635 43.801 14.5435C44.297 14.2075 44.689 13.7595 44.977 13.1995C45.281 12.6235 45.433 11.9675 45.433 11.2315C45.433 10.5115 45.281 9.86353 44.977 9.28753C44.689 8.71153 44.297 8.26353 43.801 7.94353C43.305 7.62353 42.753 7.46353 42.145 7.46353C41.521 7.46353 40.961 7.63153 40.465 7.96753C39.969 8.28753 39.577 8.73553 39.289 9.31153C39.001 9.87153 38.857 10.5195 38.857 11.2555ZM62.5797 17.5195H59.3637V10.4635C59.3637 9.45553 59.1877 8.71953 58.8357 8.25553C58.4837 7.79153 57.9957 7.55953 57.3717 7.55953C56.9397 7.55953 56.4997 7.67153 56.0517 7.89553C55.6197 8.11953 55.2277 8.43153 54.8757 8.83153C54.5237 9.21553 54.2677 9.66353 54.1077 10.1755V17.5195H50.8917V4.94353H53.7957V7.27153C54.1157 6.72753 54.5237 6.27153 55.0197 5.90353C55.5157 5.51953 56.0837 5.23153 56.7237 5.03953C57.3797 4.83153 58.0677 4.72753 58.7877 4.72753C59.5717 4.72753 60.2117 4.87153 60.7077 5.15953C61.2197 5.43153 61.6037 5.80753 61.8597 6.28753C62.1317 6.75153 62.3157 7.27953 62.4117 7.87153C62.5237 8.46353 62.5797 9.06353 62.5797 9.67153V17.5195ZM65.6412 17.5195V0.47953H68.9532V17.5195H65.6412ZM79.7804 17.6395C78.5324 17.6395 77.3964 17.3995 76.3724 16.9195C75.3644 16.4235 74.4924 15.7675 73.7564 14.9515C73.0364 14.1355 72.4764 13.2155 72.0764 12.1915C71.6764 11.1515 71.4764 10.0875 71.4764 8.99953C71.4764 7.86353 71.6844 6.78353 72.1004 5.75953C72.5324 4.71953 73.1164 3.79953 73.8524 2.99953C74.6044 2.18353 75.4844 1.54353 76.4924 1.07953C77.5164 0.59953 78.6364 0.35953 79.8524 0.35953C81.0844 0.35953 82.2044 0.607531 83.2124 1.10353C84.2364 1.59953 85.1084 2.26353 85.8284 3.09553C86.5484 3.92753 87.1084 4.85553 87.5084 5.87953C87.9084 6.90353 88.1084 7.95953 88.1084 9.04753C88.1084 10.1675 87.9004 11.2475 87.4844 12.2875C87.0684 13.3115 86.4844 14.2315 85.7324 15.0475C84.9964 15.8475 84.1164 16.4795 83.0924 16.9435C82.0844 17.4075 80.9804 17.6395 79.7804 17.6395ZM79.8044 14.7115C80.6044 14.7115 81.3164 14.5515 81.9404 14.2315C82.5644 13.8955 83.0844 13.4555 83.5004 12.9115C83.9164 12.3515 84.2284 11.7355 84.4364 11.0635C84.6604 10.3755 84.7724 9.68753 84.7724 8.99953C84.7724 8.26353 84.6524 7.55153 84.4124 6.86353C84.1884 6.17553 83.8604 5.56753 83.4284 5.03953C83.0124 4.51153 82.4924 4.08753 81.8684 3.76753C81.2604 3.44753 80.5724 3.28753 79.8044 3.28753C78.9884 3.28753 78.2684 3.45553 77.6444 3.79153C77.0364 4.11153 76.5244 4.55153 76.1084 5.11153C75.6924 5.65553 75.3724 6.26353 75.1484 6.93553C74.9404 7.60753 74.8364 8.29553 74.8364 8.99953C74.8364 9.73553 74.9484 10.4475 75.1724 11.1355C75.3964 11.8235 75.7164 12.4315 76.1324 12.9595C76.5644 13.4875 77.0844 13.9115 77.6924 14.2315C78.3164 14.5515 79.0204 14.7115 79.8044 14.7115ZM79.4684 11.2075H82.5884L88.2044 17.5195H85.0844L79.4684 11.2075Z" fill="white"/>
</svg>
